<?xml version="1.0" standalone="no"?>
<!DOCTYPE svg PUBLIC "-//W3C//DTD SVG 20010904//EN"
 "http://www.w3.org/TR/2001/REC-SVG-20010904/DTD/svg10.dtd">
<svg version="1.0" xmlns="http://www.w3.org/2000/svg"
 width="750.000000pt" height="1334.000000pt" viewBox="0 0 750.000000 1334.000000"
 preserveAspectRatio="xMidYMid meet">

<g transform="translate(0.000000,1334.000000) scale(0.100000,-0.100000)"
fill="#000000" stroke="none">
<path d="M0 9660 l0 -3680 25 -6 c18 -4 23 -10 16 -18 -7 -8 4 -17 36 -30 40
-17 46 -17 60 -3 14 14 19 13 55 -5 33 -17 43 -19 62 -8 13 6 34 10 47 8 23
-3 24 -6 24 -88 0 -77 -11 -139 -28 -156 -3 -4 -2 -16 4 -26 12 -22 4 -85 -13
-105 -6 -7 -8 -18 -5 -25 2 -7 1 -47 -3 -88 -4 -50 -3 -77 4 -82 8 -5 7 -8 -1
-8 -8 0 -10 -67 -7 -262 3 -145 7 -290 9 -323 2 -33 4 -91 4 -128 1 -60 4 -70
21 -74 20 -5 32 -36 66 -178 1 -5 12 -48 23 -95 32 -126 68 -258 127 -470 16
-56 57 -171 79 -225 43 -101 104 -260 110 -285 4 -16 11 -32 16 -35 5 -4 9
-15 9 -26 0 -10 4 -27 9 -37 5 -9 14 -29 20 -44 6 -16 16 -40 22 -55 6 -16 15
-35 19 -43 4 -9 11 -31 15 -50 4 -19 11 -41 16 -50 24 -45 59 -131 59 -144 0
-8 4 -17 9 -20 5 -4 12 -24 16 -46 4 -22 15 -62 25 -89 10 -28 15 -52 12 -55
-2 -3 1 -12 8 -21 7 -8 10 -21 7 -30 -4 -8 -2 -17 2 -20 5 -2 12 -22 16 -42 9
-49 43 -163 65 -218 10 -26 23 -59 25 -65 6 -25 19 -61 31 -90 28 -64 32 -74
73 -180 23 -58 41 -110 41 -117 0 -7 6 -32 14 -55 7 -24 19 -63 26 -88 25 -87
34 -115 42 -124 4 -6 8 -17 8 -25 1 -9 16 -45 35 -81 19 -36 39 -77 46 -92 6
-16 15 -28 20 -28 5 0 9 -8 9 -17 0 -9 6 -24 14 -32 8 -9 26 -40 41 -69 15
-28 30 -52 34 -52 4 0 15 -15 25 -33 21 -40 34 -61 71 -116 52 -77 64 -95 80
-123 9 -16 19 -28 24 -28 4 0 13 -12 20 -27 14 -30 19 -36 81 -100 37 -38 60
-52 155 -93 36 -15 32 -15 165 -38 58 -10 123 -17 145 -16 22 1 101 5 175 9
158 8 201 12 251 25 89 24 217 156 304 315 44 79 82 131 190 260 55 66 113
138 130 160 16 22 37 48 46 59 10 10 27 44 39 75 12 31 26 65 30 76 5 11 23
67 40 125 18 58 36 110 40 115 4 6 31 80 60 165 29 85 66 188 81 228 16 40 28
76 27 80 -1 4 4 20 10 35 7 16 12 37 12 48 0 11 4 18 9 15 4 -3 6 6 3 21 -3
18 -1 24 7 19 6 -4 11 -2 11 3 0 6 -4 11 -9 11 -6 0 -6 12 0 30 6 16 15 30 21
30 5 0 7 4 3 9 -3 5 4 12 15 16 11 3 20 15 20 25 0 21 76 100 97 100 7 0 13
11 13 24 0 23 2 24 30 13 23 -9 33 -8 42 1 9 9 5 12 -19 12 -18 0 -35 5 -39
11 -5 8 6 9 36 4 38 -6 42 -5 37 9 -4 10 -3 15 3 11 6 -3 13 2 17 12 3 10 19
35 36 56 16 20 26 37 22 37 -3 0 2 15 12 32 17 31 23 39 51 72 6 8 12 20 12
26 0 5 7 10 15 10 8 0 17 10 20 23 11 45 23 132 19 139 -10 15 9 59 22 54 19
-7 54 66 42 88 -6 10 -3 28 7 50 10 20 14 44 10 56 -4 11 -2 27 4 34 7 8 7 23
1 47 -6 20 -6 35 -1 37 5 2 7 11 5 20 -3 9 -1 44 4 77 6 49 11 59 25 57 9 -2
17 2 17 8 0 5 -4 10 -10 10 -21 0 -9 20 15 26 15 4 25 13 25 24 0 9 9 25 19
34 19 17 20 17 31 -4 19 -36 23 -14 6 35 -14 42 -14 46 0 34 9 -7 23 -29 32
-48 10 -20 25 -37 35 -39 22 -4 22 21 0 54 -21 33 -20 134 2 150 21 16 19 27
-4 19 -14 -4 -23 0 -30 14 -16 30 -15 30 44 29 30 -1 55 -5 55 -10 0 -4 -5 -8
-11 -8 -5 0 -7 -5 -4 -10 3 -6 15 -10 26 -10 10 0 20 -7 20 -15 1 -15 4 -27 9
-42 1 -5 3 -12 4 -18 7 -40 29 -95 37 -95 6 0 7 -5 4 -10 -3 -6 1 -17 10 -26
13 -14 18 -14 32 -2 13 10 17 10 20 1 3 -7 9 -13 15 -13 6 0 8 7 5 14 -4 10
-1 13 10 9 19 -7 32 13 25 39 -3 13 -11 18 -23 15 -11 -3 -19 0 -19 7 0 7 -8
21 -18 32 -81 87 -122 136 -122 144 0 44 226 -102 373 -241 76 -73 78 -76 97
-154 12 -46 18 -92 14 -108 -5 -23 0 -35 23 -60 46 -49 63 -79 63 -109 0 -15
4 -30 10 -33 5 -3 58 -8 117 -10 116 -4 154 -14 191 -48 47 -43 93 -124 102
-179 4 -29 17 -75 27 -102 16 -44 21 -49 51 -51 18 -2 43 -12 55 -23 12 -11
39 -28 59 -39 41 -20 97 -67 183 -151 59 -58 93 -66 162 -37 45 19 77 13 158
-26 110 -54 134 -77 181 -167 1 -2 31 -6 65 -8 35 -3 61 -2 57 2 -9 9 22 39
41 40 76 5 77 5 56 14 -21 9 -21 9 12 16 16 3 21 0 17 -10 -3 -8 -1 -17 4 -20
6 -3 12 1 16 9 4 11 21 15 59 15 62 0 147 -38 212 -94 22 -19 79 -59 128 -88
80 -49 90 -58 121 -118 34 -64 36 -65 108 -93 41 -15 90 -43 112 -62 21 -19
40 -35 42 -35 2 0 4 2545 4 5655 l0 5655 -3750 0 -3750 0 0 -3680z m4075 2175
c0 -19 -5 -25 -21 -25 -27 0 -40 37 -15 43 32 9 36 7 36 -18z m25 -95 c0 -17
6 -20 34 -17 23 1 36 8 40 20 7 27 26 20 32 -11 5 -24 10 -28 39 -28 18 1 31
6 28 11 -2 6 10 16 27 22 25 9 30 9 30 -4 0 -9 6 -12 18 -9 71 22 107 24 123
10 13 -12 22 -13 37 -5 17 9 31 4 81 -27 36 -22 60 -43 58 -52 -2 -17 24 -21
30 -4 4 12 -17 38 -45 53 -9 5 -14 13 -10 17 4 4 14 1 22 -5 8 -7 20 -10 26
-6 5 3 13 -2 17 -12 10 -30 34 -52 49 -46 8 3 17 -2 20 -11 3 -9 15 -16 25
-16 10 0 19 -4 19 -8 0 -5 12 -15 28 -22 38 -19 93 -78 80 -86 -6 -4 -14 -1
-18 6 -5 8 -9 4 -13 -11 -8 -30 19 -50 50 -38 28 10 31 -6 7 -32 -15 -17 -15
-21 0 -53 15 -33 48 -58 43 -33 -1 7 7 11 23 9 21 -4 22 -2 11 12 -7 9 -10 16
-5 16 4 0 3 5 -4 12 -7 7 -12 31 -12 55 l0 43 25 -16 c20 -13 23 -22 18 -42
-4 -17 -2 -23 5 -18 11 7 9 -25 -3 -44 -4 -7 2 -9 18 -5 28 7 47 -12 23 -21
-9 -3 -16 -14 -16 -24 0 -10 -7 -20 -15 -24 -22 -8 -18 -24 8 -28 15 -2 22
-10 22 -26 0 -13 8 -30 19 -37 11 -8 16 -21 13 -30 -7 -17 8 -21 18 -5 10 16
35 12 29 -5 -4 -9 0 -15 10 -15 20 0 22 -48 2 -56 -9 -3 -13 -16 -11 -32 1
-15 3 -35 4 -46 1 -15 4 -16 15 -7 17 14 31 -2 22 -25 -5 -13 -10 -13 -40 0
-29 12 -35 12 -40 0 -6 -16 9 -28 24 -19 12 8 13 -6 1 -38 -13 -34 -40 -42
-63 -18 -23 26 -23 38 3 51 27 15 20 32 -14 36 -23 2 -27 0 -22 -16 4 -14 -5
-26 -38 -49 -25 -17 -48 -27 -51 -23 -4 3 -4 -2 0 -13 7 -18 6 -18 -9 -7 -9 8
-24 12 -34 10 -16 -3 -15 -6 6 -27 17 -17 20 -26 12 -34 -8 -8 -11 -7 -11 4 0
12 -2 12 -11 -1 -9 -12 -10 -11 -6 8 6 26 -17 31 -31 6 -6 -11 -11 -13 -16 -5
-9 14 -46 15 -46 1 0 -5 -4 -10 -10 -10 -5 0 -8 12 -7 27 1 14 -4 28 -10 30
-7 3 -13 -1 -13 -7 0 -6 -6 -17 -13 -24 -11 -11 -17 -11 -30 -1 -9 7 -17 17
-17 24 0 6 -5 11 -11 11 -6 0 -9 -3 -7 -7 2 -5 10 -20 17 -36 19 -37 8 -44
-22 -13 -22 22 -29 24 -59 16 -18 -6 -34 -10 -35 -10 -1 0 0 -7 4 -16 5 -14 1
-16 -20 -12 -19 4 -32 -1 -47 -19 -21 -24 -22 -24 -41 -7 -23 21 -24 34 -4 34
8 0 15 5 15 11 0 6 -7 9 -15 5 -8 -3 -15 -1 -15 4 0 6 -7 10 -15 10 -17 0 -17
1 -19 47 -3 40 -4 42 -47 45 -30 3 -34 0 -32 -20 3 -20 -1 -22 -35 -19 -32 3
-37 6 -34 26 3 33 -15 52 -43 45 -18 -4 -25 -1 -30 16 -6 18 -9 20 -16 9 -6
-10 -9 -11 -9 -1 0 17 -51 15 -64 -4 -11 -14 -14 -13 -36 5 -21 18 -23 22 -10
31 21 14 60 12 91 -4 15 -7 32 -10 39 -6 15 9 70 -17 70 -34 0 -15 57 -49 70
-41 15 10 -11 43 -45 57 -30 12 -45 25 -45 41 0 4 9 3 19 -2 14 -8 22 -7 31 4
10 13 8 15 -14 15 -15 0 -36 -5 -47 -11 -18 -9 -19 -8 -10 9 12 22 6 32 -21
32 -21 0 -24 -20 -6 -38 9 -9 8 -12 -5 -12 -10 0 -22 12 -28 27 -9 23 -7 30
10 44 l20 17 -21 6 c-13 3 -33 3 -47 -1 -23 -6 -24 -6 -5 -21 18 -13 18 -14
-3 -7 -14 4 -23 2 -23 -4 0 -6 -11 -11 -25 -11 -16 0 -25 6 -25 15 0 8 -9 15
-19 15 -11 0 -26 6 -33 13 -7 7 -22 16 -32 20 -10 4 -16 10 -13 13 3 3 24 -4
46 -14 43 -21 53 -15 24 14 -13 13 -14 19 -5 22 19 6 14 22 -8 22 -13 0 -20 7
-20 19 0 10 -8 25 -17 32 -15 13 -16 11 -9 -11 12 -39 12 -53 1 -56 -12 -5
-38 48 -27 55 8 6 8 11 11 70 l1 40 40 -2 c27 -2 40 2 40 10 0 7 -9 13 -20 13
-19 0 -24 10 -21 38 3 18 -12 15 -29 -6 -28 -34 -42 -65 -33 -71 13 -9 15 -41
3 -41 -6 0 -16 13 -21 30 -7 18 -17 29 -27 28 -31 -2 -52 2 -52 10 0 5 16 9
36 10 45 2 49 5 34 32 -9 17 -8 26 3 44 15 22 14 22 -34 21 -27 -1 -49 2 -49
6 0 4 20 16 45 28 28 13 43 26 39 33 -5 7 -10 5 -16 -5 -5 -9 -15 -14 -24 -10
-13 5 -13 8 2 24 9 10 23 15 32 11 15 -5 15 -4 3 12 -10 12 -17 14 -25 6 -5
-5 -20 -10 -32 -10 -12 0 -25 -7 -28 -16 -3 -9 -12 -14 -20 -11 -7 3 -19 0
-26 -6 -9 -9 -9 -6 1 10 8 13 19 19 28 15 13 -5 14 -3 4 10 -11 12 -9 18 6 32
11 10 19 26 18 37 -2 23 -6 24 -22 2 -11 -15 -15 -15 -29 -4 -9 8 -15 19 -13
25 6 18 61 14 75 -6 15 -20 43 -25 38 -5 -1 6 -1 9 1 5 3 -5 11 -8 18 -8 7 0
16 -6 18 -12 3 -7 6 -3 6 9 1 12 4 29 7 37 6 15 8 15 20 -1 11 -15 13 -15 14
-3 0 10 3 11 8 4 4 -6 17 -14 30 -18 16 -6 22 -3 22 8 0 9 5 16 11 16 6 0 10
10 9 23 -3 35 -2 37 25 37 18 0 25 -5 25 -20z m-316 -151 c-3 -5 -10 -7 -15
-3 -5 3 -7 10 -3 15 3 5 10 7 15 3 5 -3 7 -10 3 -15z m1176 -89 c0 -5 -4 -10
-9 -10 -6 0 -13 5 -16 10 -3 6 1 10 9 10 9 0 16 -4 16 -10z m-1140 -20 c0 -5
-5 -10 -11 -10 -5 0 -7 5 -4 10 3 6 8 10 11 10 2 0 4 -4 4 -10z m53 -65 c-3
-8 -9 -15 -14 -15 -10 0 -12 24 -3 33 11 11 24 -3 17 -18z m-53 -13 c0 -13
-12 -22 -22 -16 -10 6 -1 24 13 24 5 0 9 -4 9 -8z m70 -72 c0 -5 -2 -10 -4
-10 -3 0 -8 5 -11 10 -3 6 -1 10 4 10 6 0 11 -4 11 -10z m1210 -51 c0 -6 -4
-7 -10 -4 -5 3 -10 11 -10 16 0 6 5 7 10 4 6 -3 10 -11 10 -16z m100 -56 c-11
-17 -11 -17 -6 0 3 10 6 24 7 30 0 9 2 9 5 0 3 -7 0 -20 -6 -30z m20 -27 c0
-3 -4 -8 -10 -11 -5 -3 -10 -1 -10 4 0 6 5 11 10 11 6 0 10 -2 10 -4z m-1182
-115 c3 -8 -1 -12 -9 -9 -7 2 -15 10 -17 17 -3 8 1 12 9 9 7 -2 15 -10 17 -17z
m-68 -11 c0 -5 -2 -10 -4 -10 -3 0 -8 5 -11 10 -3 6 -1 10 4 10 6 0 11 -4 11
-10z m120 0 c0 -5 -7 -7 -15 -4 -8 4 -15 8 -15 10 0 2 7 4 15 4 8 0 15 -4 15
-10z m-30 -110 c0 -5 -2 -10 -4 -10 -3 0 -8 5 -11 10 -3 6 -1 10 4 10 6 0 11
-4 11 -10z m1143 -13 c3 -7 -1 -21 -9 -32 -8 -10 -14 -15 -14 -10 0 5 -11 -2
-25 -15 -14 -13 -25 -18 -25 -12 0 6 11 19 25 28 14 9 25 25 25 35 0 22 15 26
23 6z m-1069 -12 c11 -8 17 -15 14 -15 -4 0 -13 -3 -21 -6 -9 -3 -16 3 -20 15
-6 25 1 26 27 6z m77 -25 c5 0 9 -7 9 -15 0 -18 -9 -19 -32 -1 -22 16 -23 30
-2 22 9 -3 20 -6 25 -6z m185 -16 c-4 -10 1 -22 11 -30 21 -16 5 -17 -37 -4
-18 6 -20 8 -7 9 14 1 17 6 12 21 -5 15 -2 20 10 20 12 0 15 -5 11 -16z m818
-11 c-10 -48 -13 -53 -30 -53 -13 0 -15 6 -9 27 13 52 50 76 39 26z m-1068 3
c18 -19 18 -26 -1 -26 -8 0 -15 5 -15 10 0 6 -10 10 -22 11 -22 0 -22 1 -3 9
11 5 21 9 23 9 2 1 10 -5 18 -13z m104 -21 c14 -19 14 -19 -2 -6 -10 7 -18 18
-18 24 0 6 1 8 3 6 1 -2 9 -13 17 -24z m750 21 c0 -3 -4 -8 -10 -11 -5 -3 -10
-1 -10 4 0 6 5 11 10 11 6 0 10 -2 10 -4z m35 -6 c-3 -5 -12 -10 -18 -10 -7 0
-6 4 3 10 19 12 23 12 15 0z m249 -22 c-9 -14 -23 2 -17 18 4 12 8 13 14 3 4
-7 5 -17 3 -21z m-1224 2 c0 -5 -2 -10 -4 -10 -3 0 -8 5 -11 10 -3 6 -1 10 4
10 6 0 11 -4 11 -10z m915 -10 c3 -5 1 -10 -4 -10 -6 0 -11 5 -11 10 0 6 2 10
4 10 3 0 8 -4 11 -10z m135 -4 c0 -3 -4 -8 -10 -11 -5 -3 -10 -1 -10 4 0 6 5
11 10 11 6 0 10 -2 10 -4z m-863 -22 c-3 -3 -12 -4 -19 -1 -8 3 -5 6 6 6 11 1
17 -2 13 -5z m573 -9 c7 -8 8 -15 2 -15 -5 0 -15 7 -22 15 -7 8 -8 15 -2 15 5
0 15 -7 22 -15z m-720 -6 c0 -6 -9 -8 -21 -4 -15 5 -19 4 -15 -4 11 -17 -10
-13 -24 4 -11 13 -7 15 24 15 20 0 36 -5 36 -11z m960 1 c0 -5 -4 -10 -10 -10
-5 0 -10 5 -10 10 0 6 5 10 10 10 6 0 10 -4 10 -10z m-350 -10 c0 -5 -7 -10
-15 -10 -8 0 -15 -7 -15 -17 0 -9 3 -13 7 -10 3 4 12 2 20 -5 13 -11 28 -4 28
13 0 18 20 9 21 -10 2 -33 -12 -47 -30 -32 -12 10 -20 10 -29 3 -16 -14 -42 1
-32 18 6 9 3 9 -13 1 -12 -6 -23 -15 -26 -20 -7 -11 -46 -2 -46 10 0 5 13 21
29 37 30 28 101 44 101 22z m175 1 c3 -5 1 -12 -5 -16 -5 -3 -10 1 -10 9 0 18
6 21 15 7z m-935 -16 c0 -8 -4 -15 -9 -15 -13 0 -22 16 -14 24 11 11 23 6 23
-9z m258 -2 c16 -15 15 -16 -11 -9 -15 3 -27 2 -27 -2 0 -12 -48 -3 -56 10 -4
6 5 8 25 3 20 -4 31 -3 31 4 0 16 19 13 38 -6z m357 -11 c-3 -3 -11 0 -18 7
-9 10 -8 11 6 5 10 -3 15 -9 12 -12z m-285 -2 c0 -5 -4 -10 -10 -10 -5 0 -10
5 -10 10 0 6 5 10 10 10 6 0 10 -4 10 -10z m510 6 c0 -3 -4 -8 -10 -11 -5 -3
-10 -1 -10 4 0 6 5 11 10 11 6 0 10 -2 10 -4z m-895 -36 c3 -5 1 -10 -4 -10
-6 0 -11 5 -11 10 0 6 2 10 4 10 3 0 8 -4 11 -10z m197 -2 c-9 -9 -15 -9 -24
0 -9 9 -7 12 12 12 19 0 21 -3 12 -12z m173 -14 c20 -20 13 -29 -12 -16 -13 8
-22 7 -35 -5 -14 -13 -21 -13 -32 -4 -8 7 -12 19 -9 27 7 19 68 18 88 -2z
m-245 -25 c0 -5 -7 -9 -15 -9 -15 0 -20 12 -9 23 8 8 24 -1 24 -14z m-140 -4
c0 -8 -4 -15 -9 -15 -5 0 -11 -9 -14 -20 -3 -14 0 -20 10 -20 12 0 13 -3 3
-14 -6 -8 -17 -13 -23 -10 -14 5 -19 54 -7 54 5 0 12 9 15 20 7 23 25 27 25 5z
m734 -1 c9 -3 13 -10 10 -16 -9 -15 27 -48 52 -48 25 0 40 -15 25 -24 -5 -4
-12 -2 -16 4 -4 6 -10 8 -15 5 -5 -3 -11 -1 -15 5 -4 6 -11 8 -16 5 -5 -4 -12
2 -16 11 -4 10 -18 28 -32 41 -20 17 -22 22 -9 23 9 0 23 -3 32 -6z m56 -15
c0 -6 9 -8 20 -4 14 5 20 2 20 -9 0 -21 -34 -21 -54 0 -20 19 -20 24 -1 24 8
0 15 -5 15 -11z m-385 -19 c3 -5 -1 -10 -9 -10 -8 0 -18 5 -21 10 -3 6 1 10 9
10 8 0 18 -4 21 -10z m-465 -10 c0 -13 -11 -13 -30 0 -12 8 -11 10 8 10 12 0
22 -4 22 -10z m257 -16 c-3 -3 -12 -4 -19 -1 -8 3 -5 6 6 6 11 1 17 -2 13 -5z
m-277 -18 c0 -15 52 -46 78 -46 10 0 13 8 10 24 -4 20 -1 24 16 23 12 -1 27
-7 35 -15 8 -8 16 -10 20 -4 7 11 111 12 111 1 0 -18 -29 -30 -49 -19 -35 18
-24 -6 17 -38 20 -16 53 -33 72 -36 l35 -7 -22 20 c-26 22 -34 52 -8 31 8 -6
23 -9 35 -5 16 5 23 2 27 -14 6 -22 18 -27 28 -11 10 16 28 12 21 -5 -4 -11 3
-19 20 -25 22 -9 25 -15 19 -37 -4 -17 -2 -29 7 -34 19 -13 28 -11 28 6 0 18
16 20 26 4 3 -6 1 -14 -5 -18 -8 -6 -9 -15 -2 -33 9 -23 7 -25 -10 -21 -27 7
-25 -21 3 -39 l23 -15 -32 -16 c-17 -9 -34 -26 -38 -37 -9 -29 -64 -65 -78
-51 -18 18 -27 13 -28 -16 0 -23 -2 -24 -8 -9 -7 17 -9 16 -24 -8 -10 -14 -13
-26 -7 -26 6 0 1 -14 -12 -30 -19 -26 -26 -29 -55 -24 -20 4 -33 2 -33 -4 0
-5 -7 -12 -15 -16 -13 -4 -14 -2 -5 14 9 16 8 18 -5 14 -13 -5 -15 -1 -9 21 6
23 4 26 -12 22 -54 -16 -74 -18 -75 -8 -1 6 -3 14 -4 19 -2 4 -6 17 -10 30
-11 32 -25 27 -25 -9 0 -27 -3 -30 -22 -24 -13 4 -30 14 -38 22 -13 13 -12 14
10 8 19 -5 22 -4 10 4 -10 8 -12 13 -4 19 6 4 14 17 18 30 6 16 3 24 -11 28
-57 18 -72 27 -66 38 4 6 0 5 -9 -2 -10 -8 -19 -9 -22 -3 -4 5 3 12 14 16 11
3 20 11 20 17 0 6 -3 8 -7 5 -3 -4 -13 -2 -20 5 -11 9 -16 9 -23 -3 -13 -20
-55 25 -44 49 12 28 14 91 4 97 -17 11 -11 54 10 75 12 12 25 18 30 15 13 -8
13 11 0 35 -8 15 -7 18 3 14 7 -2 24 0 38 5 35 14 49 13 49 -3z m1405 4 c3 -5
1 -10 -4 -10 -6 0 -11 5 -11 10 0 6 2 10 4 10 3 0 8 -4 11 -10z m-575 -30 c0
-5 -2 -10 -4 -10 -3 0 -8 5 -11 10 -3 6 -1 10 4 10 6 0 11 -4 11 -10z m60 -9
c0 -17 -18 -21 -24 -6 -3 9 0 15 9 15 8 0 15 -4 15 -9z m-49 -104 c-10 -9 -11
-8 -5 6 3 10 9 15 12 12 3 -3 0 -11 -7 -18z m-1001 3 c0 -5 -2 -10 -4 -10 -3
0 -8 5 -11 10 -3 6 -1 10 4 10 6 0 11 -4 11 -10z m800 -246 c0 -8 -4 -12 -10
-9 -5 3 -10 10 -10 16 0 5 5 9 10 9 6 0 10 -7 10 -16z m-20 -50 c0 -10 -6 -14
-14 -11 -10 4 -13 1 -9 -9 3 -8 -1 -14 -10 -14 -8 0 -17 -5 -19 -12 -3 -7 -10
-8 -17 -4 -11 7 -11 10 0 18 10 6 6 7 -11 3 -21 -6 -20 -3 10 19 40 29 70 33
70 10z m315 -13 c-3 -5 -1 -12 5 -16 5 -3 10 -11 10 -16 0 -6 -4 -8 -9 -5 -5
3 -8 -5 -7 -19 0 -14 7 -25 15 -25 8 0 11 6 7 15 -6 17 9 21 19 5 9 -14 -44
-60 -61 -53 -8 3 -14 9 -14 15 0 5 5 6 12 2 8 -5 9 0 5 17 -4 13 -7 28 -7 32
0 5 -5 5 -12 1 -8 -5 -9 -1 -5 12 7 18 6 18 -7 1 -10 -13 -16 -15 -21 -6 -9
13 12 29 37 29 9 0 20 5 23 10 3 6 8 10 11 10 3 0 3 -4 -1 -9z m55 -25 c0 -2
-7 -7 -16 -10 -8 -3 -12 -2 -9 4 6 10 25 14 25 6z m-450 -17 c0 -6 9 -9 20 -6
32 8 32 -9 1 -42 -37 -39 -78 -36 -78 6 0 19 4 24 18 20 11 -3 22 0 26 5 3 7
1 8 -5 4 -13 -8 -17 6 -5 17 10 11 23 8 23 -4z m-440 -39 c0 -5 -4 -10 -9 -10
-6 0 -13 5 -16 10 -3 6 1 10 9 10 9 0 16 -4 16 -10z m820 -72 c0 -6 -6 -5 -15
2 -8 7 -15 14 -15 16 0 2 7 1 15 -2 8 -4 15 -11 15 -16z m-415 2 c4 -6 2 -17
-4 -24 -6 -7 -9 -15 -6 -18 12 -12 -42 -1 -54 11 -13 12 -12 15 4 27 22 17 51
18 60 4z m455 0 c0 -5 -4 -10 -10 -10 -5 0 -10 5 -10 10 0 6 5 10 10 10 6 0
10 -4 10 -10z m-65 -10 c3 -5 1 -10 -4 -10 -6 0 -11 5 -11 10 0 6 2 10 4 10 3
0 8 -4 11 -10z m-1739 -545 c10 -8 14 -15 7 -15 -19 0 -43 11 -43 21 0 13 14
11 36 -6z m-55 -96 c24 -24 23 -24 -13 -33 -18 -4 -32 -1 -43 10 -14 15 -14
17 2 30 24 18 30 17 54 -7z m1305 -357 c12 -9 26 -32 33 -51 10 -30 8 -39 -10
-70 l-21 -36 21 -13 c30 -20 26 -29 -9 -24 -29 4 -41 -10 -20 -23 6 -3 10 -19
10 -35 0 -16 7 -30 16 -34 11 -4 14 -13 11 -27 -6 -21 8 -56 28 -72 6 -6 6
-10 -2 -14 -22 -8 -14 -23 11 -23 30 0 41 -26 17 -40 -15 -7 -18 -6 -17 8 1
11 -8 18 -24 20 -20 3 -23 1 -12 -9 16 -17 15 -29 -3 -29 -8 0 -15 -5 -15 -12
0 -9 -3 -9 -12 0 -19 19 -30 14 -18 -7 7 -13 7 -22 0 -26 -15 -9 -32 5 -26 21
3 7 0 16 -6 20 -7 4 -8 3 -4 -4 5 -8 1 -11 -11 -9 -29 5 -59 25 -49 34 5 4 11
2 13 -4 3 -7 8 -13 13 -13 4 0 3 11 -3 25 -8 17 -18 23 -29 19 -10 -3 -18 -1
-18 5 0 6 8 11 19 11 10 0 24 6 30 14 16 20 -11 40 -62 45 -4 1 -5 12 -1 25 3
13 1 39 -4 58 -7 25 -6 39 3 52 7 9 11 26 8 37 -4 15 -2 18 11 13 10 -4 24 1
34 10 9 9 26 23 36 30 23 16 13 36 -17 36 -21 1 -21 1 -4 14 11 9 14 17 8 20
-6 4 -8 13 -4 21 3 8 1 15 -5 15 -6 0 -13 -6 -15 -12 -3 -7 -6 -1 -6 14 -1 24
3 27 37 31 20 2 39 4 42 5 3 1 15 -6 26 -16z m-196 -342 c0 -5 -4 -10 -10 -10
-5 0 -10 5 -10 10 0 6 5 10 10 10 6 0 10 -4 10 -10z m14 -45 c-7 -16 -24 -21
-24 -6 0 8 7 13 27 20 1 1 0 -6 -3 -14z m36 -46 c0 -5 -4 -9 -10 -9 -5 0 -10
7 -10 16 0 8 5 12 10 9 6 -3 10 -10 10 -16z m-1312 -131 c-4 -12 -38 -21 -38
-9 0 12 12 21 28 21 7 0 12 -5 10 -12z m49 -15 c-9 -9 -20 -13 -24 -9 -4 4 -1
11 7 16 25 16 35 11 17 -7z m203 -3 c0 -5 -4 -10 -10 -10 -5 0 -10 5 -10 10 0
6 5 10 10 10 6 0 10 -4 10 -10z m-97 -39 c-2 -6 3 -11 10 -11 6 0 4 -5 -7 -11
-14 -9 -21 -8 -27 2 -8 11 -11 11 -20 -4 -6 -10 -15 -14 -22 -10 -8 4 -7 1 1
-9 14 -18 8 -83 -11 -105 -6 -9 -5 -18 3 -28 16 -20 0 -19 -29 1 -14 10 -26
13 -30 7 -8 -13 -61 -26 -61 -15 0 5 -16 8 -35 8 -35 -1 -51 -16 -17 -16 9 -1
28 -7 42 -16 24 -14 24 -15 2 -9 -19 6 -23 3 -20 -12 2 -15 -3 -17 -27 -15
-23 2 -27 1 -15 -7 23 -16 -16 -14 -67 4 -23 8 -50 12 -59 8 -14 -5 -16 -3
-11 11 4 10 7 21 7 26 0 4 9 10 20 13 28 7 25 40 -5 54 -22 10 -25 9 -25 -8 0
-10 -5 -19 -11 -19 -6 0 -8 -9 -4 -20 5 -15 2 -20 -10 -20 -11 0 -15 5 -11 15
3 9 0 15 -9 15 -22 0 -28 19 -8 27 22 7 62 53 63 71 0 6 4 12 10 12 5 0 7 -6
5 -12 -3 -7 4 -24 15 -38 16 -20 20 -22 20 -7 0 28 1 31 13 45 7 9 22 12 39 8
25 -5 29 -2 34 24 4 16 13 35 22 42 13 10 14 10 8 0 -10 -16 20 -46 39 -38 8
3 12 12 9 19 -6 15 42 31 51 17 3 -4 29 -2 57 5 58 14 74 13 71 -4z m-296 -7
c-3 -3 -12 -4 -19 -1 -8 3 -5 6 6 6 11 1 17 -2 13 -5z m383 -34 c-8 -5 -19
-10 -25 -10 -5 0 -3 5 5 10 8 5 20 10 25 10 6 0 3 -5 -5 -10z m-580 -20 c0 -5
-4 -10 -10 -10 -5 0 -10 5 -10 10 0 6 5 10 10 10 6 0 10 -4 10 -10z m515 -28
c0 -18 -20 -15 -23 4 -3 10 1 15 10 12 7 -3 13 -10 13 -16z m1099 -18 c6 -15
42 -19 50 -6 8 13 70 1 82 -16 6 -8 25 -15 43 -14 17 0 31 -4 31 -11 1 -22 55
-74 85 -82 17 -4 25 -9 19 -12 -7 -2 -10 -12 -7 -22 3 -12 11 -17 27 -14 32 7
48 -34 40 -103 -5 -43 -10 -54 -25 -54 -12 0 -16 5 -13 15 7 17 3 18 -20 9 -9
-3 -16 -12 -16 -19 0 -7 -6 -15 -12 -18 -19 -7 -111 4 -125 16 -9 6 -17 6 -26
-2 -11 -8 -22 -4 -47 19 -19 17 -41 30 -50 30 -15 0 -45 28 -94 87 -15 18 -16
26 -7 37 17 21 4 61 -14 46 -19 -16 -28 5 -13 29 10 16 10 23 0 33 -16 16 -15
29 1 27 24 -4 69 21 64 36 -4 9 -1 12 8 9 7 -3 16 -12 19 -20z m41 16 c3 -5 2
-10 -4 -10 -5 0 -13 5 -16 10 -3 6 -2 10 4 10 5 0 13 -4 16 -10z m-1625 -101
c0 -5 -4 -9 -10 -9 -5 0 -10 7 -10 16 0 8 5 12 10 9 6 -3 10 -10 10 -16z m330
-14 c10 -13 9 -15 -9 -15 -12 0 -21 6 -21 15 0 8 4 15 9 15 5 0 14 -7 21 -15z
m-400 -26 c0 -6 -4 -7 -10 -4 -5 3 -10 11 -10 16 0 6 5 7 10 4 6 -3 10 -11 10
-16z m-70 -39 c0 -5 -5 -10 -11 -10 -5 0 -7 5 -4 10 3 6 8 10 11 10 2 0 4 -4
4 -10z m1345 -1033 c22 -11 40 -19 40 -17 0 10 222 -99 236 -117 22 -26 -36
-14 -82 17 -24 16 -47 30 -51 30 -4 0 -32 11 -63 25 -76 35 -174 65 -212 65
-31 0 -41 9 -27 23 12 12 120 -6 159 -26z m-319 -802 c29 -29 33 -39 24 -50
-9 -11 -9 -15 -1 -15 6 0 11 -5 11 -11 0 -5 -12 -9 -27 -8 -61 5 -93 -1 -93
-16 0 -18 -5 -19 -32 -4 -17 9 -18 13 -7 20 12 8 11 12 -3 23 -22 16 -23 36
-3 36 8 0 15 5 15 12 0 20 32 48 57 48 14 0 38 -15 59 -35z m168 -89 c-6 -16
-34 -30 -42 -21 -8 7 19 35 34 35 7 0 11 -6 8 -14z m56 -25 c0 -18 -43 -45
-54 -34 -10 11 -7 22 14 43 23 23 40 19 40 -9z m-242 -8 c2 -8 -6 -13 -22 -13
-26 0 -40 12 -29 24 11 11 46 2 51 -11z m565 -26 c47 -17 53 -24 62 -64 5 -27
3 -33 -9 -33 -9 0 -21 12 -26 26 -9 23 -11 24 -26 10 -22 -22 -33 -20 -40 9
-3 14 -10 25 -15 25 -5 0 -6 -6 -3 -14 4 -10 -6 -15 -35 -18 -23 -2 -41 -1
-41 2 0 17 27 60 38 60 6 0 12 5 12 11 0 12 24 9 83 -14z m-483 -7 c0 -5 -4
-10 -10 -10 -5 0 -10 5 -10 10 0 6 5 10 10 10 6 0 10 -4 10 -10z m609 -41
c-15 -9 -32 -2 -24 11 3 5 13 6 21 3 12 -4 13 -8 3 -14z m95 -20 c28 -33 26
-49 -4 -49 -21 0 -40 28 -40 59 0 29 14 26 44 -10z m-326 -53 c3 -12 -1 -17
-10 -14 -7 3 -15 13 -16 22 -3 12 1 17 10 14 7 -3 15 -13 16 -22z m757 -1986
c3 -5 1 -10 -4 -10 -6 0 -11 5 -11 10 0 6 2 10 4 10 3 0 8 -4 11 -10z"/>
<path d="M4124 11698 c-8 -13 39 -27 54 -16 6 6 12 14 12 18 0 10 -60 8 -66
-2z"/>
<path d="M4056 11664 c10 -43 17 -47 43 -23 21 20 22 23 6 31 -9 6 -19 7 -22
4 -4 -3 -12 -1 -20 6 -12 10 -13 7 -7 -18z"/>
<path d="M3886 11625 c4 -8 7 -15 9 -15 2 0 5 7 9 15 3 9 0 15 -9 15 -9 0 -12
-6 -9 -15z"/>
<path d="M4010 11620 c0 -5 5 -10 10 -10 6 0 10 5 10 10 0 6 -4 10 -10 10 -5
0 -10 -4 -10 -10z"/>
<path d="M3980 11574 c0 -8 5 -12 10 -9 6 4 8 11 5 16 -9 14 -15 11 -15 -7z"/>
<path d="M4805 11560 c-3 -5 -1 -10 4 -10 6 0 11 5 11 10 0 6 -2 10 -4 10 -3
0 -8 -4 -11 -10z"/>
<path d="M4059 11424 c-10 -13 -10 -17 1 -24 17 -10 30 -4 30 15 0 22 -16 26
-31 9z"/>
<path d="M3991 11334 c0 -11 3 -14 6 -6 3 7 2 16 -1 19 -3 4 -6 -2 -5 -13z"/>
<path d="M4110 11300 c0 -12 10 -25 25 -32 30 -14 47 -2 22 16 -9 7 -17 18
-17 25 0 6 -7 11 -15 11 -8 0 -15 -9 -15 -20z"/>
<path d="M4045 11263 c-6 -27 -7 -27 -21 -9 -12 17 -14 17 -14 4 0 -9 9 -20
20 -23 11 -3 20 -11 20 -16 0 -5 3 -9 8 -9 4 0 7 18 7 40 0 46 -10 52 -20 13z"/>
<path d="M4270 11130 c0 -5 7 -10 15 -10 8 0 15 5 15 10 0 6 -7 10 -15 10 -8
0 -15 -4 -15 -10z"/>
<path d="M5015 11090 c-3 -5 -1 -10 4 -10 6 0 11 5 11 10 0 6 -2 10 -4 10 -3
0 -8 -4 -11 -10z"/>
<path d="M5110 11020 c0 -5 5 -10 11 -10 5 0 7 5 4 10 -3 6 -8 10 -11 10 -2 0
-4 -4 -4 -10z"/>
<path d="M4936 11011 c-4 -7 -5 -15 -2 -18 9 -9 19 4 14 18 -4 11 -6 11 -12 0z"/>
<path d="M4350 11000 c0 -5 7 -10 16 -10 8 0 12 5 9 10 -3 6 -10 10 -16 10 -5
0 -9 -4 -9 -10z"/>
<path d="M4897 10943 c-4 -3 3 -13 14 -21 18 -12 22 -13 30 -1 5 9 3 16 -9 21
-23 9 -28 9 -35 1z"/>
<path d="M4480 10896 c0 -19 4 -23 20 -19 12 3 20 0 20 -6 0 -7 -5 -9 -12 -5
-9 5 -9 2 1 -9 7 -9 21 -17 30 -17 14 0 14 2 1 11 -12 9 -10 10 9 5 22 -5 22
-3 -10 30 -39 40 -59 43 -59 10z"/>
<path d="M3920 10573 c0 -14 31 -46 37 -39 3 3 -4 15 -16 27 -12 13 -21 18
-21 12z"/>
<path d="M3757 10553 c-4 -3 -7 -11 -7 -17 0 -6 5 -5 12 2 6 6 9 14 7 17 -3 3
-9 2 -12 -2z"/>
<path d="M3808 10513 c-10 -2 -18 -9 -18 -14 0 -15 43 -7 48 9 4 12 0 13 -30
5z"/>
<path d="M3722 10496 c1 -10 8 -17 13 -17 15 1 12 24 -3 29 -9 3 -13 -2 -10
-12z"/>
<path d="M4114 10467 c-16 -19 -5 -37 22 -37 19 0 23 5 22 25 -3 27 -25 33
-44 12z"/>
<path d="M4241 10454 c0 -11 3 -14 6 -6 3 7 2 16 -1 19 -3 4 -6 -2 -5 -13z"/>
<path d="M3854 10445 c24 -18 39 -20 34 -2 -3 6 -15 13 -29 15 -23 2 -23 2 -5
-13z"/>
<path d="M3920 10436 c0 -9 7 -16 16 -16 9 0 14 5 12 12 -6 18 -28 21 -28 4z"/>
<path d="M4095 10390 c4 -6 11 -8 16 -5 14 9 11 15 -7 15 -8 0 -12 -5 -9 -10z"/>
<path d="M4123 10303 c-18 -6 -16 -33 1 -33 19 0 31 19 20 30 -5 4 -15 5 -21
3z"/>
<path d="M3950 10155 c0 -8 2 -15 4 -15 2 0 6 7 10 15 3 8 1 15 -4 15 -6 0
-10 -7 -10 -15z"/>
<path d="M4015 10130 c3 -5 11 -10 16 -10 6 0 7 5 4 10 -3 6 -11 10 -16 10 -6
0 -7 -4 -4 -10z"/>
<path d="M4155 8730 c3 -5 8 -10 11 -10 2 0 4 5 4 10 0 6 -5 10 -11 10 -5 0
-7 -4 -4 -10z"/>
<path d="M4200 8661 c0 -6 4 -11 9 -11 5 0 12 -7 15 -16 5 -13 2 -15 -13 -11
-17 4 -18 2 -8 -14 6 -10 15 -19 18 -19 7 0 23 51 17 54 -2 1 -11 8 -20 15
-12 9 -18 10 -18 2z"/>
<path d="M2777 8340 c-3 -13 0 -20 9 -20 8 0 14 9 14 20 0 11 -4 20 -9 20 -5
0 -11 -9 -14 -20z"/>
<path d="M2580 8266 c0 -2 7 -7 16 -10 8 -3 12 -2 9 4 -6 10 -25 14 -25 6z"/>
<path d="M2590 8220 c-17 -6 -19 -8 -7 -9 14 -1 16 -5 8 -19 -6 -11 -6 -24 -1
-32 13 -21 23 -5 25 35 0 19 1 35 0 34 0 -1 -11 -5 -25 -9z"/>
<path d="M4195 8220 c3 -5 8 -10 11 -10 2 0 4 5 4 10 0 6 -5 10 -11 10 -5 0
-7 -4 -4 -10z"/>
<path d="M3220 6250 c0 -5 5 -10 10 -10 6 0 10 5 10 10 0 6 -4 10 -10 10 -5 0
-10 -4 -10 -10z"/>
<path d="M286 3852 c-10 -45 1 -159 17 -189 9 -15 24 -46 33 -68 10 -22 26
-52 36 -67 10 -14 18 -36 18 -48 0 -11 5 -18 10 -15 6 3 10 0 10 -8 0 -8 10
-18 23 -21 21 -7 21 -7 2 -16 -17 -7 -17 -9 -2 -9 16 -1 21 -11 18 -38 -1 -7
3 -13 8 -13 12 0 24 36 16 49 -3 5 0 13 6 17 8 5 9 3 4 -6 -6 -9 -4 -11 4 -6
12 8 7 20 -10 22 -5 1 -12 2 -15 3 -4 0 -1 8 6 16 16 19 5 34 -12 17 -22 -22
-29 -12 -13 18 15 29 15 30 -6 30 -15 0 -19 5 -15 15 3 9 -1 18 -9 21 -7 3
-11 12 -8 20 3 8 -6 38 -20 67 -14 28 -28 71 -32 95 -4 23 -10 42 -15 42 -8 0
-24 57 -21 76 1 7 -5 14 -13 17 -10 4 -16 -3 -20 -21z"/>
<path d="M4650 3660 c-6 -11 -8 -25 -4 -31 3 -6 0 -24 -6 -40 -13 -30 -14 -30
-69 -23 -44 5 -53 4 -45 -6 7 -6 20 -10 30 -8 11 2 42 -8 69 -22 l50 -25 3
-130 c3 -188 29 -469 62 -695 28 -189 42 -260 96 -485 13 -55 33 -167 44 -250
27 -197 33 -227 45 -223 6 2 9 6 7 11 -1 4 2 27 8 52 12 55 -2 241 -31 409
-26 147 -29 170 -29 219 0 20 -5 37 -10 37 -6 0 -9 3 -8 8 1 4 -4 36 -11 72
-7 36 -14 81 -16 100 -4 33 -6 45 -21 117 -23 112 -47 354 -41 410 3 30 1 53
-4 53 -5 0 -9 7 -9 15 0 8 5 15 11 15 7 0 5 9 -5 25 -11 17 -13 31 -7 48 6 14
6 29 0 38 -5 8 -6 33 -3 57 4 23 2 42 -2 42 -5 0 -10 38 -12 84 -3 106 7 116
112 116 100 0 73 12 -34 15 -50 2 -94 6 -97 9 -12 12 -24 5 -33 -19 -5 -14
-13 -25 -18 -25 -5 0 -7 11 -4 25 5 30 -3 32 -18 5z"/>
<path d="M5002 3540 c0 -14 2 -19 5 -12 2 6 2 18 0 25 -3 6 -5 1 -5 -13z"/>
<path d="M480 3349 c0 -11 5 -17 10 -14 6 3 10 13 10 21 0 8 -4 14 -10 14 -5
0 -10 -9 -10 -21z"/>
<path d="M500 3315 c-7 -9 -8 -15 -2 -15 5 0 12 7 16 15 3 8 4 15 2 15 -2 0
-9 -7 -16 -15z"/>
<path d="M3930 2650 c19 -13 30 -13 30 0 0 6 -10 10 -22 10 -19 0 -20 -2 -8
-10z"/>
<path d="M1124 1155 c-10 -8 -14 -15 -8 -15 6 0 17 7 24 15 16 19 9 19 -16 0z"/>
<path d="M1162 1104 c-7 -8 -8 -14 -3 -14 10 0 25 19 20 25 -2 1 -10 -3 -17
-11z"/>
<path d="M1258 1082 c-10 -2 -18 -8 -18 -13 0 -11 11 -11 30 1 18 11 11 18
-12 12z"/>
<path d="M1370 900 c-9 -6 -10 -10 -3 -10 6 0 15 5 18 10 8 12 4 12 -15 0z"/>
<path d="M3058 698 c-15 -19 -18 -19 -18 -5 0 9 -4 17 -10 17 -5 0 -10 -9 -10
-20 0 -10 -9 -24 -20 -30 -11 -6 -18 -15 -14 -21 10 -17 -24 -57 -61 -69 -19
-6 -40 -21 -46 -33 -11 -20 -12 -20 -26 -1 -11 16 -15 17 -23 5 -6 -11 -12
-12 -22 -3 -11 8 -17 6 -26 -9 -11 -17 -16 -18 -28 -8 -19 16 -22 11 -25 -39
-3 -50 -12 -53 -29 -12 -18 43 -28 45 -28 6 0 -19 -3 -40 -7 -45 -9 -16 -25
-3 -25 20 0 10 -4 19 -10 19 -5 0 -10 -9 -10 -20 0 -25 -25 -37 -44 -21 -11
10 -17 8 -25 -6 -10 -17 -12 -17 -25 -1 -18 25 -24 23 -28 -9 l-3 -28 -22 23
c-28 27 -33 28 -33 2 0 -11 -6 -20 -14 -20 -8 0 -18 9 -21 20 -10 32 -22 23
-29 -20 -7 -46 -21 -52 -31 -12 -7 26 -8 26 -15 6 -13 -35 -28 -37 -44 -7 -13
24 -15 25 -16 8 0 -11 -7 -28 -14 -38 -13 -16 -14 -16 -21 10 -9 37 -26 10
-18 -29 6 -31 -14 -40 -23 -11 -15 45 -30 73 -37 73 -5 0 -6 -9 -3 -20 3 -11
9 -30 12 -42 4 -13 12 -26 18 -30 6 -5 2 -8 -11 -8 -13 0 -23 4 -23 8 0 13
-81 7 -89 -7 -6 -9 -13 -2 -25 22 -13 28 -20 34 -37 30 -14 -4 -25 0 -31 11
-5 9 -17 16 -28 16 -10 0 -26 7 -34 16 -10 10 -16 11 -16 3 0 -9 -3 -9 -14 0
-11 10 -17 7 -30 -10 -15 -21 -16 -22 -34 -6 -18 16 -18 16 -14 -16 5 -37 42
-81 42 -51 0 13 8 9 30 -16 17 -18 30 -41 30 -51 0 -9 7 -22 15 -29 13 -11 14
-8 8 20 -4 24 -3 31 5 26 7 -4 12 -13 12 -20 0 -7 9 -25 20 -39 11 -14 20 -32
20 -40 0 -8 7 -20 15 -27 12 -10 15 -9 15 6 0 14 3 15 12 6 10 -10 9 -19 -4
-42 -14 -25 -15 -30 -3 -30 8 0 15 8 15 17 0 14 4 13 24 -6 20 -19 35 -22 99
-23 42 0 81 3 86 7 6 3 18 -1 27 -9 20 -20 38 -21 30 -1 -3 8 -3 22 0 30 5 13
9 13 22 3 12 -10 16 -10 19 -1 3 10 9 10 23 1 25 -16 35 -5 19 21 -20 31 -2
38 27 10 21 -20 27 -21 35 -9 8 13 10 13 19 0 9 -13 11 -13 20 0 5 8 8 21 5
28 -2 6 -1 12 4 12 13 0 32 -26 25 -33 -4 -3 1 -14 11 -23 9 -10 20 -13 23 -8
4 5 24 10 44 11 47 3 143 47 112 51 -15 2 -24 13 -28 34 -8 40 0 49 13 14 6
-14 15 -26 21 -26 12 0 12 -2 0 39 -10 36 2 67 22 55 5 -3 12 3 15 15 3 12 13
21 24 21 11 0 19 6 19 14 0 8 15 26 33 41 17 15 37 37 44 49 7 11 13 17 13 11
1 -5 7 6 15 25 7 19 18 34 24 33 6 -2 11 6 11 17 0 18 75 100 92 100 4 0 8 7
8 15 0 8 9 15 20 15 13 0 20 7 20 19 0 11 4 21 10 23 5 2 7 14 2 30 l-7 27
-17 -21z m-288 -213 c10 -12 10 -15 -4 -15 -9 0 -16 7 -16 15 0 8 2 15 4 15 2
0 9 -7 16 -15z m-820 -165 c0 -9 -50 -23 -57 -16 -3 2 -2 9 1 14 7 11 56 13
56 2z m700 -134 c0 -15 -14 -35 -21 -30 -15 9 -10 34 6 34 8 0 15 -2 15 -4z
m-370 -46 c0 -5 -2 -10 -4 -10 -3 0 -8 5 -11 10 -3 6 -1 10 4 10 6 0 11 -4 11
-10z m-45 -11 c11 -16 1 -19 -13 -3 -7 8 -8 14 -3 14 5 0 13 -5 16 -11z m-93
-24 c0 -5 -5 -11 -11 -13 -6 -2 -11 4 -11 13 0 9 5 15 11 13 6 -2 11 -8 11
-13z"/>
<path d="M1718 543 c7 -3 16 -2 19 1 4 3 -2 6 -13 5 -11 0 -14 -3 -6 -6z"/>
<path d="M1678 533 c7 -3 16 -2 19 1 4 3 -2 6 -13 5 -11 0 -14 -3 -6 -6z"/>
<path d="M1626 521 c-4 -5 3 -7 14 -4 23 6 26 13 6 13 -8 0 -17 -4 -20 -9z"/>
<path d="M1791 509 c-68 -13 -71 -17 -14 -16 34 0 54 5 57 14 3 7 4 13 3 12
-1 -1 -22 -5 -46 -10z"/>
<path d="M3341 497 c-13 -21 -12 -21 5 -5 10 10 16 20 13 22 -3 3 -11 -5 -18
-17z"/>
<path d="M1678 483 c6 -2 18 -2 25 0 6 3 1 5 -13 5 -14 0 -19 -2 -12 -5z"/>
<path d="M3270 414 c-88 -109 -290 -297 -381 -355 -37 -24 -68 -47 -68 -51 -1
-5 25 -8 58 -8 l59 0 110 115 c93 96 282 331 282 350 0 15 -19 -1 -60 -51z"/>
<path d="M1750 440 c13 -8 10 -14 -15 -34 l-29 -23 23 -8 c13 -4 28 -2 34 4 6
6 8 11 4 11 -4 0 2 9 13 20 28 28 25 40 -12 40 -25 0 -29 -3 -18 -10z"/>
<path d="M1457 180 c-3 -11 -1 -23 5 -26 6 -4 6 -9 -2 -14 -9 -6 -6 -10 9 -15
32 -10 26 -28 -6 -21 -16 4 -23 3 -17 -1 19 -14 24 -41 8 -47 -9 -3 -12 -11
-9 -17 5 -7 13 -5 26 7 17 15 20 15 55 -5 29 -17 39 -19 45 -9 4 7 12 9 16 4
4 -5 2 -11 -4 -13 -32 -11 -8 -23 47 -23 59 0 60 0 54 25 -5 20 -3 24 10 19 9
-3 16 -12 16 -19 0 -20 21 -30 31 -14 6 11 11 11 21 1 17 -17 38 -15 38 4 0 9
7 14 18 12 9 -1 23 1 30 6 9 5 15 1 19 -13 5 -19 13 -21 79 -21 43 0 74 4 74
10 0 6 -5 10 -11 10 -5 0 -9 8 -7 18 2 11 -3 26 -11 36 -13 15 -15 15 -32 0
-16 -14 -18 -14 -29 7 l-12 22 -19 -24 c-16 -21 -18 -22 -24 -6 -10 24 -29 22
-22 -3 3 -13 0 -20 -8 -20 -8 0 -17 9 -20 20 -3 11 -11 20 -17 20 -6 0 -6 -6
2 -15 11 -13 9 -15 -11 -13 -13 2 -31 14 -39 27 -9 13 -24 26 -35 27 -80 12
-99 12 -110 -3 -10 -14 -13 -13 -29 3 -18 17 -18 18 3 35 11 9 21 20 21 23 0
3 -29 6 -65 6 -37 0 -65 4 -65 10 0 18 -18 10 -23 -10z m48 -41 c11 -17 -1
-21 -15 -4 -8 9 -8 15 -2 15 6 0 14 -5 17 -11z m61 -65 c-5 -13 -10 -14 -18
-6 -6 6 -8 18 -4 28 5 13 10 14 18 6 6 -6 8 -18 4 -28z m174 -24 c0 -11 -2
-20 -4 -20 -2 0 -6 9 -9 20 -3 11 -1 20 4 20 5 0 9 -9 9 -20z"/>
<path d="M2742 175 c-7 -8 -9 -15 -4 -15 5 0 15 7 22 15 16 19 -1 19 -18 0z"/>
</g>
</svg>
